<svg xmlns="http://www.w3.org/2000/svg" width="500" height="400" viewBox="0 0 500 400"><defs><filter id="b" color-interpolation-filters="sRGB"><feFlood flood-opacity=".498" flood-color="#560048" result="flood"/><feComposite in="flood" in2="SourceGraphic" operator="out" result="composite1"/><feGaussianBlur in="composite1" stdDeviation="5" result="blur"/><feOffset result="offset"/><feComposite in="offset" in2="SourceGraphic" operator="in" result="composite2"/></filter><clipPath id="l"><path fill="#e2e2e2" stroke="#000" stroke-width="0" d="M0 80h500v400H0z"/></clipPath><clipPath id="k"><path fill="#e2e2e2" stroke="#000" stroke-width="0" d="M0 80h500v400H0z"/></clipPath><clipPath id="j"><path fill="#e2e2e2" stroke="#000" stroke-width="0" d="M0 80h500v400H0z"/></clipPath><clipPath id="i"><path fill="#e2e2e2" stroke="#000" stroke-width="0" d="M0 80h500v400H0z"/></clipPath><clipPath id="h"><path fill="#e2e2e2" stroke="#000" stroke-width="0" d="M0 80h500v400H0z"/></clipPath><clipPath id="g"><path fill="#e2e2e2" stroke="#000" stroke-width="0" d="M0 80h500v400H0z"/></clipPath><clipPath id="f"><path fill="#e2e2e2" stroke="#000" stroke-width="0" d="M0 80h500v400H0z"/></clipPath><clipPath id="e"><path fill="#e2e2e2" stroke="#000" stroke-width="0" d="M0 80h500v400H0z"/></clipPath><clipPath id="d"><path fill="#e2e2e2" stroke="#000" stroke-width="0" d="M0 80h500v400H0z"/></clipPath><clipPath id="c"><path fill="#e2e2e2" stroke="#000" stroke-width="0" d="M-620 79.997h500v400h-500z"/></clipPath><clipPath id="a"><path fill="#e2e2e2" stroke="#000" stroke-width="0" d="M0 80h500v400H0z"/></clipPath></defs><g clip-path="url(#a)" transform="translate(0 -80)"><circle r="114.768" cy="230" cx="-60" filter="url(#b)"/><circle r="249.497" cy="230" cx="-60" fill="none" stroke="#0055d4" stroke-width="2"/><circle cx="-60" cy="230" r="204.587" fill="none" stroke="#2ca02c" stroke-width="2"/><circle r="159.678" cy="230" cx="-60" fill="none" stroke="#c8ab37" stroke-width="2"/><circle cx="-60" cy="230" r="114.768" fill="none" stroke="#d40000" stroke-width="2"/></g><g transform="translate(620 -79.997)" clip-path="url(#c)"><circle cx="-60" cy="230" r="114.768" fill="#fff" filter="url(#b)"/><circle cx="-60" cy="230" r="249.497" fill="none" stroke="#0055d4" stroke-width="2"/><circle r="204.587" cy="230" cx="-60" fill="none" stroke="#2ca02c" stroke-width="2"/><circle cx="-60" cy="230" r="159.678" fill="none" stroke="#c8ab37" stroke-width="2"/><circle r="114.768" cy="230" cx="-60" fill="none" stroke="#d40000" stroke-width="2"/></g><path clip-path="url(#d)" fill="#ffa7c9" stroke="#d0003a" stroke-width="2" d="M30 200h40v60H30z" transform="translate(0 -80)"/><path clip-path="url(#e)" fill="#e3d499" stroke="#c8ac37" stroke-width="2" d="M80 200h40v60H80z" transform="translate(0 -80)"/><path clip-path="url(#f)" fill="#9ee49e" stroke="#2d9f2d" stroke-width="2" d="M130 200h40v60h-40z" transform="translate(0 -80)"/><path clip-path="url(#g)" fill="#a7cbff" stroke="#0055d4" stroke-width="2" d="M180 200h40v60h-40z" transform="translate(0 -80)"/><path clip-path="url(#h)" transform="translate(-1 -79)" fill="#a7cbff" stroke="#0055d4" stroke-width="2" d="M281 199h40v60h-40z"/><path clip-path="url(#i)" fill="#9ee49e" stroke="#2d9f2d" stroke-width="2" d="M330 200h40v60h-40z" transform="translate(0 -80)"/><path clip-path="url(#j)" fill="#e3d499" stroke="#c8ac37" stroke-width="2" d="M380 200h40v60h-40z" transform="translate(0 -80)"/><path clip-path="url(#k)" fill="#ffa7c9" stroke="#d10002" stroke-width="2" stroke-opacity=".925" d="M430 200h40v60h-40z" transform="translate(0 -80)"/><path clip-path="url(#l)" transform="translate(-1 -79)" fill="#e2e2e2" stroke="#000" stroke-width="2" d="M81 279h340v40H81z"/></svg>